<svg width="643" height="278" viewBox="0 0 643 278" fill="none" xmlns="http://www.w3.org/2000/svg">
<path d="M191.294 228.897C189.084 245.912 180.955 261.48 172.283 276.476C171.997 276.986 171.702 277.489 171.4 278H81.2708C79.4479 277.535 77.6486 277.025 75.8569 276.476C65.6771 273.431 56.0666 268.786 47.3989 262.722C14.2406 239.252 1.48127 194.904 7.24437 155.165C10.8279 130.477 21.8572 105.27 43.3344 91.9727C54.6743 84.9394 69.2405 82.6535 82.2945 85.2671C82.6361 85.3281 82.9773 85.4043 83.3261 85.4728C94.5573 87.957 104.563 94.1292 110.256 104.073C120.494 121.942 114.398 144.078 109.364 163.967C104.346 183.855 101.623 207.66 116.19 222.328C111.381 208.422 116.128 191.833 127.615 182.43C136.294 175.336 148.379 172.676 159.4 174.878C160.455 175.099 161.495 175.351 162.518 175.656C164.993 176.368 167.378 177.349 169.631 178.582C186.811 188.008 193.769 209.717 191.294 228.897Z" fill="#F2F2F2"/>
<path d="M137.853 276.476C140.351 277.047 142.856 277.55 145.377 278H131.749C129.965 277.528 128.189 277.025 126.428 276.476C122.558 275.287 118.747 273.923 114.995 272.384C99.948 266.181 86.0873 256.87 75.6008 244.48C70.4721 238.477 66.2841 231.755 63.1751 224.538C59.8038 216.38 57.6613 207.784 56.8152 199.019C54.9147 181.035 56.8538 162.557 60.4759 144.894C64.214 126.587 70.2479 108.806 78.4397 91.9575C79.4248 89.9382 80.4434 87.9316 81.4957 85.9377C81.5681 85.7735 81.6776 85.6278 81.8161 85.5116C81.9545 85.3954 82.1181 85.3118 82.2944 85.2671C82.6525 85.1989 83.0234 85.2729 83.3261 85.4729C83.6893 85.6776 83.9586 86.0116 84.0785 86.4058C84.1983 86.8 84.1594 87.2243 83.9699 87.5912C75.5237 103.773 69.1213 120.908 64.9048 138.615C60.7785 155.889 58.4361 173.964 59.2349 191.726C59.995 208.323 64.4086 224.645 74.4218 238.216C83.5665 250.606 96.1937 260.375 110.163 267.027C119.005 271.183 128.293 274.353 137.853 276.476V276.476Z" fill="white"/>
<path d="M167.762 278H163.744C163.294 277.497 162.859 276.986 162.433 276.476C153.281 265.552 147.082 252.537 144.407 238.635C141.159 221.286 143.686 203.371 151.613 187.543C153.824 183.105 156.43 178.867 159.4 174.878C160.455 175.099 161.494 175.351 162.518 175.656C154.706 185.824 149.452 197.662 147.184 210.205C145.16 221.958 145.833 234.006 149.153 245.471C152.473 256.937 158.356 267.529 166.373 276.476C166.823 276.986 167.288 277.497 167.762 278Z" fill="white"/>
<path d="M315.303 161.931H240.857L240.067 139.444C240.033 138.469 240.214 137.499 240.599 136.6C240.983 135.7 241.561 134.893 242.293 134.234C243.025 133.575 243.894 133.08 244.839 132.783C245.785 132.485 246.785 132.393 247.77 132.511L291.093 137.723H291.098C297.521 137.74 303.675 140.257 308.212 144.723C312.748 149.19 315.298 155.241 315.303 161.55V161.931Z" fill="#DE0909"/>
<path d="M282.122 82.1658H230.199C229.509 82.1656 228.825 82.2991 228.187 82.5586C227.549 82.8181 226.969 83.1986 226.481 83.6783C225.992 84.158 225.605 84.7276 225.341 85.3543C225.077 85.9811 224.941 86.6529 224.941 87.3313V138.341C224.941 139.02 225.077 139.691 225.341 140.318C225.605 140.945 225.992 141.515 226.481 141.994C226.969 142.474 227.549 142.854 228.187 143.114C228.825 143.374 229.509 143.507 230.199 143.507H282.122C282.812 143.507 283.496 143.374 284.134 143.114C284.772 142.854 285.352 142.474 285.84 141.994C286.328 141.515 286.716 140.945 286.98 140.318C287.244 139.691 287.38 139.02 287.38 138.341V87.3313C287.38 86.6529 287.244 85.9811 286.98 85.3543C286.716 84.7275 286.328 84.158 285.84 83.6783C285.352 83.1986 284.772 82.8181 284.134 82.5586C283.496 82.2991 282.812 82.1656 282.122 82.1658V82.1658Z" fill="#CCCCCC"/>
<path d="M270.428 120.309L245.913 124.999C244.459 125.276 242.953 124.974 241.724 124.161C240.496 123.348 239.646 122.089 239.362 120.661L237.477 111.154C237.196 109.726 237.503 108.246 238.33 107.039C239.158 105.832 240.439 104.998 241.893 104.718L266.408 100.028C267.862 99.7513 269.368 100.053 270.597 100.866C271.825 101.679 272.675 102.938 272.959 104.366L274.844 113.873C275.125 115.301 274.818 116.781 273.991 117.988C273.163 119.195 271.882 120.029 270.428 120.309Z" fill="#3F3D56"/>
<path d="M265.523 109.078L246.815 112.657C246.472 112.722 246.118 112.652 245.829 112.46C245.54 112.269 245.34 111.972 245.273 111.636C245.206 111.3 245.278 110.952 245.473 110.668C245.668 110.384 245.97 110.187 246.312 110.122L265.021 106.542C265.363 106.477 265.718 106.548 266.007 106.739C266.296 106.931 266.496 107.227 266.562 107.563C266.629 107.899 266.557 108.248 266.362 108.532C266.167 108.816 265.865 109.012 265.523 109.078V109.078Z" fill="white"/>
<path d="M261.887 114.378L252.21 116.229C251.868 116.295 251.513 116.224 251.224 116.033C250.935 115.841 250.735 115.545 250.668 115.209C250.602 114.873 250.674 114.524 250.869 114.24C251.063 113.956 251.365 113.76 251.707 113.694L261.384 111.843C261.554 111.811 261.728 111.811 261.897 111.845C262.066 111.879 262.227 111.945 262.37 112.04C262.513 112.134 262.636 112.256 262.731 112.397C262.827 112.539 262.893 112.697 262.926 112.864C262.959 113.03 262.958 113.201 262.924 113.368C262.889 113.534 262.822 113.692 262.726 113.832C262.629 113.973 262.505 114.094 262.361 114.187C262.217 114.281 262.056 114.346 261.887 114.378Z" fill="white"/>
<path d="M287.38 87.3313V94.1111H224.941V87.3313C224.941 86.6529 225.077 85.9811 225.341 85.3543C225.605 84.7276 225.992 84.158 226.481 83.6783C226.969 83.1986 227.549 82.8181 228.187 82.5586C228.825 82.2991 229.509 82.1656 230.199 82.1658H282.122C282.812 82.1656 283.496 82.2991 284.134 82.5586C284.772 82.8181 285.352 83.1986 285.84 83.6783C286.328 84.158 286.716 84.7276 286.98 85.3543C287.244 85.9811 287.38 86.6529 287.38 87.3313Z" fill="#B3B3B3"/>
<path d="M412.063 96.2343C411.703 95.0911 411.092 94.0395 410.273 93.1536C409.454 92.2676 408.447 91.5688 407.324 91.1064C406.2 90.644 404.987 90.4293 403.77 90.4773C402.553 90.5253 401.361 90.8349 400.279 91.3843L328.846 66.2057L325.699 83.7372L396.905 102.974C397.965 104.699 399.632 105.982 401.591 106.58C403.549 107.178 405.663 107.049 407.532 106.219C409.4 105.388 410.893 103.913 411.728 102.072C412.564 100.232 412.683 98.155 412.063 96.2343V96.2343Z" fill="#FFB8B8"/>
<path opacity="0.2" d="M412.063 96.2343C411.703 95.0911 411.092 94.0395 410.273 93.1536C409.454 92.2676 408.447 91.5688 407.324 91.1064C406.2 90.644 404.987 90.4293 403.77 90.4773C402.553 90.5253 401.361 90.8349 400.279 91.3843L328.846 66.2057L325.699 83.7372L396.905 102.974C397.965 104.699 399.632 105.982 401.591 106.58C403.549 107.178 405.663 107.049 407.532 106.219C409.4 105.388 410.893 103.913 411.728 102.072C412.564 100.232 412.683 98.155 412.063 96.2343V96.2343Z" fill="black"/>
<path d="M341.525 69.4003L334.779 86.7131C334.587 87.2057 334.29 87.6519 333.906 88.0212C333.523 88.3906 333.063 88.6744 332.558 88.8535C332.053 89.0325 331.515 89.1025 330.98 89.0587C330.445 89.0149 329.926 88.8583 329.458 88.5997L313.064 79.5347C310.504 78.5555 308.444 76.6192 307.336 74.1503C306.227 71.6814 306.16 68.8814 307.149 66.364C308.139 63.8467 310.104 61.8175 312.614 60.7213C315.124 59.6251 317.974 59.5514 320.539 60.5163L338.846 64.5051C339.37 64.6194 339.863 64.8434 340.291 65.1618C340.719 65.4802 341.072 65.8854 341.326 66.35C341.58 66.8145 341.73 67.3275 341.764 67.8539C341.798 68.3802 341.717 68.9077 341.525 69.4003V69.4003Z" fill="#DE0909"/>
<path d="M417.686 112.265L392.09 123.695L395.451 136.124C401.94 160.125 403.662 185.13 400.523 209.771V209.771L419.237 213.611L434.75 174.749L429.321 130.553L417.686 112.265Z" fill="#DE0909"/>
<path d="M467.908 169.796C451.091 169.796 437.386 181.807 436.721 196.847H499.096C498.431 181.807 484.726 169.796 467.908 169.796Z" fill="#3F3D56"/>
<path d="M454.817 172.388C453.942 104.495 414.584 110.741 414.584 110.741C414.584 110.741 415.32 131.874 415.674 132.531C440.754 179.15 399.362 233.804 346.673 223.749C345.68 223.56 344.725 223.367 343.81 223.172C337.134 221.803 331.24 217.987 327.326 212.5C323.412 207.013 321.773 200.267 322.741 193.635C327.932 152.688 302.117 153.413 302.117 153.413H264.369L244.767 136.08C244.075 135.469 243.241 135.033 242.338 134.811C241.435 134.589 240.49 134.588 239.586 134.807C238.683 135.027 237.847 135.461 237.154 136.07C236.46 136.68 235.929 137.448 235.607 138.306L233.085 145.031C233.085 145.031 195.855 148.841 198.958 184.655H210.468C210.44 185.673 210.482 186.691 210.592 187.703L296.494 187.017C301.53 186.977 305.974 190.985 305.995 195.932C306 197.136 305.758 198.329 305.283 199.44C304.808 200.55 304.11 201.555 303.23 202.394C302.351 203.233 301.308 203.889 300.165 204.323C299.021 204.758 297.801 204.961 296.575 204.921L282.726 204.467C278.46 223.136 288.931 235.709 300.469 243.615C311.331 250.95 324.221 254.84 337.402 254.759H375.026C423.891 254.759 432.423 214.373 432.423 214.373C458.019 203.705 454.817 172.388 454.817 172.388Z" fill="#3F3D56"/>
<path d="M465.582 276.857C489.677 276.857 509.211 257.667 509.211 233.994C509.211 210.322 489.677 191.132 465.582 191.132C441.486 191.132 421.952 210.322 421.952 233.994C421.952 257.667 441.486 276.857 465.582 276.857Z" fill="#3F3D56"/>
<path d="M465.581 244.5C471.487 244.5 476.275 239.796 476.275 233.994C476.275 228.192 471.487 223.489 465.581 223.489C459.676 223.489 454.888 228.192 454.888 233.994C454.888 239.796 459.676 244.5 465.581 244.5Z" fill="white"/>
<path d="M245.302 276.857C273.039 276.857 295.524 254.767 295.524 227.517C295.524 200.268 273.039 178.178 245.302 178.178C217.565 178.178 195.079 200.268 195.079 227.517C195.079 254.767 217.565 276.857 245.302 276.857Z" fill="#3F3D56"/>
<path d="M245.302 239.61C252.1 239.61 257.611 234.196 257.611 227.517C257.611 220.839 252.1 215.424 245.302 215.424C238.503 215.424 232.992 220.839 232.992 227.517C232.992 234.196 238.503 239.61 245.302 239.61Z" fill="white"/>
<path d="M392.163 127.072L382.953 102.498C382.473 101.217 382.255 99.8561 382.31 98.4924C382.366 97.1287 382.694 95.7891 383.277 94.5501C383.859 93.311 384.684 92.1969 385.705 91.2711C386.726 90.3454 387.922 89.6262 389.226 89.1547L415.628 79.6059C417.922 78.7761 420.36 78.3982 422.802 78.494C425.245 78.5897 427.644 79.1571 429.863 80.1638C432.083 81.1705 434.078 82.5967 435.736 84.3611C437.394 86.1255 438.683 88.1935 439.527 90.4469C440.289 92.4696 440.678 94.6092 440.676 96.7658C440.666 99.5041 440.035 102.206 438.829 104.675C437.624 107.143 435.873 109.317 433.705 111.038C432.139 112.272 430.378 113.248 428.492 113.925L392.163 127.072Z" fill="#3F3D56"/>
<path d="M205.55 189.608C211.547 189.608 216.409 183.808 216.409 176.654C216.409 169.5 211.547 163.7 205.55 163.7C199.553 163.7 194.691 169.5 194.691 176.654C194.691 183.808 199.553 189.608 205.55 189.608Z" fill="#DE0909"/>
<path d="M349.09 222.508H358.599L363.123 198.279L349.088 198.279L349.09 222.508Z" fill="#FFB8B8"/>
<path d="M346.664 219.458L365.391 219.457H365.392C366.959 219.457 368.511 219.761 369.959 220.35C371.407 220.939 372.722 221.802 373.831 222.891C374.939 223.98 375.818 225.272 376.418 226.695C377.017 228.117 377.326 229.642 377.326 231.182V231.563L346.665 231.564L346.664 219.458Z" fill="#2F2E41"/>
<path d="M360.128 212.564C360.017 212.564 359.906 212.558 359.794 212.548L346.634 211.607C346.102 211.558 345.588 211.39 345.133 211.116C344.677 210.841 344.291 210.468 344.006 210.024C343.72 209.58 343.543 209.078 343.486 208.555C343.429 208.033 343.496 207.505 343.68 207.012L361.292 168.139C361.417 167.793 361.469 167.424 361.443 167.057C361.416 166.69 361.313 166.332 361.139 166.006C360.966 165.677 360.723 165.387 360.428 165.156C360.132 164.924 359.79 164.757 359.424 164.665C351.143 162.539 329.894 156.876 311.501 150.25C303.62 147.411 298.657 143.309 296.749 138.056C294.233 131.132 297.955 124.817 298.114 124.552L298.239 124.345L315.547 125.89L334.311 127.458L375.43 149.12C378.875 150.951 381.492 153.989 382.76 157.63C384.028 161.271 383.853 165.248 382.27 168.768L363.313 210.531C363.038 211.136 362.592 211.65 362.026 212.011C361.461 212.371 360.802 212.563 360.128 212.564Z" fill="#2F2E41"/>
<path d="M318.557 48.9823C329.078 48.9823 337.607 40.6031 337.607 30.2668C337.607 19.9305 329.078 11.5513 318.557 11.5513C308.035 11.5513 299.506 19.9305 299.506 30.2668C299.506 40.6031 308.035 48.9823 318.557 48.9823Z" fill="#FFB8B8"/>
<path d="M343.661 224.794H353.17L357.694 200.565L343.659 200.565L343.661 224.794Z" fill="#FFB8B8"/>
<path d="M341.235 221.744L359.962 221.743H359.962C361.53 221.743 363.081 222.047 364.529 222.636C365.977 223.225 367.293 224.088 368.401 225.177C369.509 226.266 370.388 227.558 370.988 228.981C371.588 230.403 371.897 231.928 371.897 233.468V233.849L341.235 233.85L341.235 221.744Z" fill="#2F2E41"/>
<path d="M354.698 214.85C354.587 214.85 354.476 214.844 354.365 214.834L341.205 213.893C340.673 213.844 340.159 213.676 339.703 213.402C339.247 213.127 338.862 212.754 338.577 212.31C338.291 211.866 338.113 211.363 338.057 210.841C338 210.319 338.066 209.791 338.25 209.298L355.862 170.425C355.988 170.078 356.039 169.71 356.013 169.343C355.987 168.976 355.884 168.618 355.71 168.292C355.536 167.963 355.294 167.673 354.998 167.441C354.703 167.21 354.361 167.043 353.995 166.951C345.713 164.825 324.465 159.162 306.071 152.536C298.191 149.697 293.228 145.595 291.32 140.342C288.804 133.418 292.525 127.103 292.685 126.838L292.81 126.631L310.118 128.176L328.881 129.744L370 151.406C373.446 153.237 376.063 156.275 377.331 159.916C378.598 163.557 378.423 167.534 376.84 171.054L357.883 212.817C357.609 213.422 357.162 213.936 356.597 214.297C356.032 214.657 355.372 214.849 354.698 214.85Z" fill="#2F2E41"/>
<path d="M324.432 59.5949L304.265 52.7368C304.265 52.7368 291.606 62.2923 297.687 85.9971C300.862 98.2296 299.938 111.142 295.05 122.817C294.462 124.262 293.783 125.669 293.019 127.032C293.019 127.032 315.512 153.702 336.454 133.89L328.31 95.4089C328.31 95.4089 341.108 69.8819 324.432 59.5949Z" fill="#DE0909"/>
<path d="M320.922 49.6188C318.211 45.6318 316.071 40.1033 319.056 36.3098C322.003 32.5652 327.815 33.1169 332.328 31.4599C338.613 29.1521 342.259 21.8973 341.122 15.4003C339.985 8.90318 334.676 3.51729 328.352 1.31357C322.028 -0.890163 314.896 -0.173459 308.703 2.36427C301.079 5.48824 294.539 11.5314 291.796 19.1864C289.054 26.8414 290.52 36.0328 296.209 41.9166C302.309 48.2247 311.881 49.9058 320.737 49.8038" fill="#2F2E41"/>
<path d="M303.201 15.6088C299.785 18.3412 294.572 17.1276 290.905 14.7295C287.237 12.3315 284.261 8.91679 280.293 7.03662C273.298 3.72195 264.84 5.92544 258.031 9.59702C251.223 13.2686 245.187 18.341 237.996 21.2222C230.804 24.1035 221.627 24.2459 216.181 18.8054C214.841 22.6199 214.731 26.7477 215.867 30.6255C217.003 34.5034 219.329 37.9425 222.528 40.4736C225.727 43.0048 229.643 44.5046 233.742 44.7686C237.841 45.0325 241.922 44.0477 245.43 41.9485C253.31 37.233 257.663 27.3458 266.501 24.7431C271.392 23.3028 276.643 24.4628 281.586 25.7192C286.529 26.9756 291.683 28.3332 296.672 27.2636C301.66 26.194 306.326 21.7901 305.692 16.813L303.201 15.6088Z" fill="#2F2E41"/>
<path d="M411.115 95.472C410.614 94.3813 409.876 93.4118 408.952 92.6319C408.028 91.8519 406.941 91.2805 405.768 90.9578C404.595 90.6352 403.364 90.5691 402.162 90.7642C400.961 90.9594 399.817 91.4111 398.812 92.0875L324.762 75.76L323.842 93.5389L396.92 103.998C398.188 105.581 400.004 106.652 402.022 107.008C404.041 107.364 406.122 106.98 407.872 105.929C409.622 104.878 410.919 103.233 411.516 101.306C412.114 99.3787 411.972 97.3029 411.115 95.472V95.472Z" fill="#FFB8B8"/>
<path d="M337.746 77.3933L333.226 95.3915C333.097 95.9035 332.858 96.3824 332.524 96.7954C332.19 97.2084 331.769 97.5458 331.291 97.7847C330.812 98.0236 330.287 98.1583 329.75 98.1797C329.214 98.2011 328.679 98.1086 328.182 97.9086L310.775 90.9001C308.11 90.2403 305.821 88.5688 304.409 86.2526C302.997 83.9363 302.578 81.1645 303.244 78.5452C303.91 75.9259 305.607 73.6732 307.962 72.2813C310.316 70.8894 313.137 70.4721 315.804 71.1209L334.472 72.8602C335.007 72.9101 335.524 73.0727 335.989 73.3367C336.453 73.6008 336.855 73.9601 337.165 74.3903C337.476 74.8205 337.689 75.3114 337.789 75.8296C337.889 76.3478 337.874 76.8811 337.746 77.3932V77.3933Z" fill="#DE0909"/>
<path d="M402.561 109.598C405.56 109.598 407.991 107.21 407.991 104.264C407.991 101.318 405.56 98.9298 402.561 98.9298C399.563 98.9298 397.132 101.318 397.132 104.264C397.132 107.21 399.563 109.598 402.561 109.598Z" fill="#DE0909"/>
<path d="M643 277.238C642.999 277.44 642.917 277.633 642.772 277.776C642.627 277.919 642.43 277.999 642.224 278H0.775633C0.569923 278 0.372637 277.92 0.227177 277.777C0.0817177 277.634 0 277.44 0 277.238C0 277.036 0.0817177 276.842 0.227177 276.699C0.372637 276.556 0.569923 276.476 0.775633 276.476H642.224C642.43 276.477 642.627 276.557 642.772 276.7C642.917 276.843 642.999 277.036 643 277.238V277.238Z" fill="#3F3D56"/>
<g filter="url(#filter0_f_34_50)">
<path d="M449.046 94.5372C438.917 94.1795 435.685 80.7143 444.549 75.7984L469.785 61.8017C475.198 58.7994 482.011 61.3863 484.067 67.2248L489.377 82.3003C491.718 88.9467 486.634 95.8647 479.592 95.616L449.046 94.5372Z" fill="#FFE6C1"/>
</g>
<g filter="url(#filter1_f_34_50)">
<path d="M456 88.0833C456 94.6647 448.613 100 439.5 100C430.387 100 423 94.6647 423 88.0833C423 81.5019 430.387 74 439.5 74C448.613 74 456 81.5019 456 88.0833Z" fill="#FFE6C1"/>
</g>
<g filter="url(#filter2_f_34_50)">
<path d="M492.917 74.7519C494.651 85.6606 492.078 95.1365 487.169 95.917C482.26 96.6975 476.875 88.4869 475.14 77.5782C473.406 66.6696 475.979 57.1936 480.888 56.4132C485.797 55.6327 491.183 63.8432 492.917 74.7519Z" fill="#FFE6C1"/>
</g>
<path d="M440.288 96.7657C440.286 99.4482 439.672 102.096 438.49 104.515C437.309 106.933 435.591 109.061 433.462 110.741C430.196 109.894 427.157 108.36 424.556 106.243C421.955 104.126 419.855 101.478 418.401 98.4833C416.947 95.4884 416.174 92.2183 416.136 88.9004C416.099 85.5824 416.797 82.2962 418.183 79.2701C420.843 78.7018 423.599 78.726 426.249 79.341C428.898 79.956 431.374 81.1462 433.494 82.8242C435.614 84.5022 437.325 86.6254 438.501 89.0379C439.676 91.4504 440.287 94.091 440.288 96.7657V96.7657Z" fill="#DE0909"/>
<defs>
<filter id="filter0_f_34_50" x="435.385" y="56.5426" width="58.5686" height="43.08" filterUnits="userSpaceOnUse" color-interpolation-filters="sRGB">
<feFlood flood-opacity="0" result="BackgroundImageFix"/>
<feBlend mode="normal" in="SourceGraphic" in2="BackgroundImageFix" result="shape"/>
<feGaussianBlur stdDeviation="2" result="effect1_foregroundBlur_34_50"/>
</filter>
<filter id="filter1_f_34_50" x="419" y="70" width="41" height="34" filterUnits="userSpaceOnUse" color-interpolation-filters="sRGB">
<feFlood flood-opacity="0" result="BackgroundImageFix"/>
<feBlend mode="normal" in="SourceGraphic" in2="BackgroundImageFix" result="shape"/>
<feGaussianBlur stdDeviation="2" result="effect1_foregroundBlur_34_50"/>
</filter>
<filter id="filter2_f_34_50" x="470.599" y="52.3618" width="26.8586" height="47.6065" filterUnits="userSpaceOnUse" color-interpolation-filters="sRGB">
<feFlood flood-opacity="0" result="BackgroundImageFix"/>
<feBlend mode="normal" in="SourceGraphic" in2="BackgroundImageFix" result="shape"/>
<feGaussianBlur stdDeviation="2" result="effect1_foregroundBlur_34_50"/>
</filter>
</defs>
</svg>
