<svg width="549" height="237" viewBox="0 0 549 237" fill="none" xmlns="http://www.w3.org/2000/svg">
<g clip-path="url(#clip0_34_2)">
<path d="M452.266 225.952C452.764 229.78 454.595 233.283 456.549 236.657C456.614 236.772 456.68 236.885 456.749 237H477.058C477.469 236.895 477.874 236.781 478.278 236.657C480.572 235.972 482.737 234.927 484.69 233.563C492.162 228.282 495.037 218.304 493.739 209.363C492.931 203.808 490.446 198.137 485.606 195.145C482.978 193.575 479.843 193.036 476.827 193.636C476.75 193.65 476.673 193.667 476.595 193.682C475.339 193.92 474.15 194.416 473.104 195.138C472.058 195.859 471.18 196.789 470.526 197.867C468.219 201.888 469.593 206.868 470.727 211.343C471.858 215.818 472.472 221.174 469.189 224.474C469.67 223.094 469.768 221.613 469.472 220.183C469.177 218.754 468.498 217.427 467.507 216.34C466.515 215.253 465.246 214.445 463.831 213.998C462.415 213.551 460.904 213.482 459.452 213.798C459.215 213.848 458.98 213.904 458.75 213.973C458.192 214.133 457.655 214.354 457.147 214.631C453.276 216.752 451.708 221.637 452.266 225.952Z" fill="#F2F2F2"/>
<path d="M464.308 236.657C463.745 236.786 463.181 236.899 462.613 237H465.683C466.085 236.894 466.486 236.781 466.882 236.657C467.755 236.39 468.613 236.083 469.459 235.736C472.887 234.371 475.932 232.218 478.336 229.458C479.491 228.107 480.435 226.595 481.136 224.971C481.895 223.136 482.378 221.202 482.569 219.23C482.917 215.153 482.639 211.048 481.744 207.052C480.901 202.933 479.542 198.932 477.696 195.141C477.474 194.687 477.244 194.236 477.007 193.787C476.991 193.75 476.966 193.717 476.935 193.691C476.904 193.665 476.867 193.646 476.827 193.636C476.747 193.621 476.663 193.637 476.595 193.682C476.513 193.728 476.452 193.804 476.425 193.892C476.398 193.981 476.407 194.076 476.45 194.159C478.353 197.8 479.796 201.655 480.746 205.639C481.724 209.547 482.154 213.567 482.023 217.589C481.954 221.329 480.763 224.967 478.601 228.049C476.499 230.824 473.733 233.05 470.547 234.531C468.555 235.466 466.462 236.179 464.308 236.657Z" fill="white"/>
<path d="M457.568 237H458.474C458.575 236.887 458.673 236.772 458.769 236.657C460.831 234.199 462.228 231.271 462.831 228.143C463.563 224.24 462.993 220.209 461.207 216.648C460.709 215.649 460.122 214.695 459.453 213.798C459.215 213.848 458.981 213.904 458.75 213.973C460.51 216.261 461.694 218.924 462.205 221.746C462.661 224.391 462.51 227.102 461.762 229.681C461.013 232.261 459.688 234.644 457.881 236.657C457.78 236.772 457.675 236.887 457.568 237Z" fill="white"/>
<g filter="url(#filter0_f_34_2)">
<path d="M360.602 88.6308C351.218 84.9103 352.631 71.2106 362.576 69.4824L414.374 60.4818L431.077 58.1951C432.16 58.0469 433.259 58.0771 434.332 58.2847L442.494 59.8637C444.571 60.2654 446.466 61.315 447.908 62.8616L450.663 65.8157C451.606 66.8268 452.329 68.0226 452.786 69.3274L454.812 75.107C454.991 75.6176 455.128 76.1418 455.222 76.6745L456.209 82.257C456.311 82.8316 456.362 83.4139 456.362 83.9974L456.362 92.9245L455.286 100.797C455.15 101.795 454.864 102.766 454.438 103.678L452.976 106.806C452.393 108.053 451.56 109.166 450.527 110.075L446.945 113.231C445.565 114.447 443.877 115.258 442.066 115.577L435.499 116.731C433.677 117.052 431.801 116.86 430.082 116.178L360.602 88.6308Z" fill="#FFE6C1"/>
</g>
<path d="M163.329 195.138C161.442 209.644 154.501 222.916 147.097 235.701C146.853 236.136 146.601 236.565 146.343 237H69.3897C67.8334 236.604 66.2971 236.168 64.7673 235.701C56.0757 233.105 47.8702 229.145 40.4696 223.975C12.1587 203.967 1.26466 166.159 6.18526 132.281C9.2449 111.234 18.6618 89.7442 36.9993 78.4084C46.6814 72.4124 59.1182 70.4635 70.2638 72.6917C70.5555 72.7437 70.8468 72.8086 71.1446 72.8671C80.7339 74.9849 89.2768 80.2468 94.1379 88.7243C102.879 103.958 97.6742 122.829 93.3764 139.784C89.0915 156.739 86.7669 177.034 99.204 189.539C95.098 177.683 99.151 163.541 108.959 155.525C116.369 149.477 126.687 147.21 136.098 149.087C136.998 149.275 137.886 149.49 138.76 149.75C140.872 150.356 142.909 151.193 144.833 152.244C159.501 160.28 165.442 178.788 163.329 195.138Z" fill="#F2F2F2"/>
<path d="M117.701 235.701C119.833 236.188 121.972 236.617 124.124 237H112.489C110.965 236.597 109.449 236.168 107.946 235.701C104.641 234.687 101.387 233.525 98.1841 232.212C85.3366 226.924 73.5023 218.986 64.5487 208.423C60.1699 203.306 56.5941 197.576 53.9396 191.423C51.0612 184.468 49.2318 177.139 48.5094 169.667C46.8868 154.336 48.5424 138.583 51.635 123.524C54.8266 107.917 59.9784 92.7588 66.9727 78.3954C67.8137 76.674 68.6835 74.9633 69.5819 73.2634C69.6437 73.1235 69.7372 72.9992 69.8554 72.9002C69.9736 72.8011 70.1133 72.7298 70.2638 72.6918C70.5696 72.6336 70.8863 72.6967 71.1447 72.8671C71.4548 73.0417 71.6848 73.3264 71.7871 73.6625C71.8894 73.9986 71.8562 74.3603 71.6944 74.6731C64.483 88.4683 59.0165 103.076 55.4164 118.172C51.8934 132.898 49.8934 148.307 50.5754 163.45C51.2244 177.599 54.9928 191.514 63.5421 203.083C71.35 213.646 82.1312 221.974 94.0584 227.645C101.608 231.189 109.538 233.89 117.701 235.701V235.701Z" fill="white"/>
<path d="M143.237 237H139.806C139.422 236.571 139.051 236.136 138.687 235.701C130.873 226.388 125.58 215.292 123.296 203.441C120.523 188.65 122.68 173.377 129.448 159.884C131.337 156.1 133.562 152.487 136.097 149.087C136.998 149.275 137.886 149.49 138.76 149.75C132.09 158.418 127.604 168.51 125.667 179.203C123.939 189.223 124.514 199.495 127.348 209.269C130.183 219.043 135.206 228.073 142.051 235.701C142.435 236.136 142.832 236.571 143.237 237Z" fill="white"/>
<path d="M269.209 138.049H205.646L204.972 118.879C204.943 118.048 205.098 117.22 205.426 116.454C205.754 115.687 206.247 114.999 206.872 114.437C207.497 113.875 208.239 113.453 209.046 113.2C209.854 112.946 210.707 112.867 211.549 112.968L248.538 117.411H248.542C254.026 117.426 259.281 119.572 263.154 123.379C267.028 127.187 269.205 132.345 269.209 137.725V138.049Z" fill="#DE0909"/>
<path d="M240.878 70.0478H196.546C195.957 70.0476 195.373 70.1614 194.828 70.3827C194.284 70.6039 193.789 70.9283 193.372 71.3373C192.955 71.7462 192.624 72.2318 192.399 72.7661C192.173 73.3005 192.057 73.8732 192.057 74.4515V117.938C192.057 118.517 192.173 119.089 192.399 119.624C192.624 120.158 192.955 120.644 193.372 121.053C193.789 121.462 194.284 121.786 194.828 122.007C195.373 122.228 195.957 122.342 196.546 122.342H240.878C241.468 122.342 242.052 122.229 242.597 122.007C243.141 121.786 243.636 121.462 244.053 121.053C244.47 120.644 244.801 120.158 245.026 119.624C245.252 119.089 245.368 118.517 245.368 117.938V74.4515C245.368 73.8732 245.252 73.3005 245.026 72.7661C244.801 72.2318 244.47 71.7462 244.053 71.3373C243.636 70.9283 243.141 70.6039 242.597 70.3827C242.052 70.1614 241.468 70.0476 240.878 70.0478V70.0478Z" fill="#CCCCCC"/>
<path d="M230.894 102.566L209.963 106.564C208.721 106.8 207.435 106.543 206.387 105.849C205.338 105.156 204.612 104.083 204.369 102.866L202.76 94.7609C202.52 93.543 202.782 92.2813 203.489 91.2527C204.196 90.224 205.29 89.5123 206.531 89.2739L227.462 85.2755C228.703 85.0398 229.989 85.2967 231.038 85.9901C232.087 86.6834 232.812 87.7565 233.055 88.9739L234.664 97.0786C234.905 98.2965 234.643 99.5582 233.936 100.587C233.229 101.616 232.135 102.327 230.894 102.566Z" fill="#3F3D56"/>
<path d="M226.707 92.9907L210.733 96.042C210.441 96.0979 210.138 96.0375 209.891 95.8743C209.644 95.7111 209.474 95.4585 209.417 95.1718C209.36 94.8852 209.421 94.5882 209.588 94.3461C209.754 94.1039 210.012 93.9366 210.304 93.8808L226.278 90.8294C226.57 90.7736 226.873 90.8339 227.119 90.9971C227.366 91.1603 227.537 91.413 227.594 91.6996C227.651 91.9862 227.589 92.2832 227.423 92.5254C227.256 92.7675 226.999 92.9349 226.707 92.9907V92.9907Z" fill="white"/>
<path d="M223.602 97.5094L215.339 99.0877C215.047 99.1435 214.744 99.0832 214.497 98.92C214.251 98.7568 214.08 98.5041 214.023 98.2175C213.966 97.9309 214.028 97.6338 214.194 97.3917C214.36 97.1496 214.618 96.9822 214.91 96.9264L223.173 95.3481C223.317 95.3205 223.466 95.3211 223.61 95.3498C223.755 95.3786 223.892 95.435 224.014 95.5158C224.137 95.5966 224.241 95.7002 224.323 95.8208C224.404 95.9413 224.461 96.0764 224.489 96.2183C224.517 96.3602 224.516 96.5062 224.487 96.6479C224.458 96.7896 224.4 96.9242 224.318 97.0441C224.235 97.164 224.13 97.2668 224.007 97.3466C223.884 97.4264 223.746 97.4818 223.602 97.5094Z" fill="white"/>
<path d="M245.368 74.4515V80.2314H192.057V74.4515C192.057 73.8732 192.173 73.3005 192.399 72.7661C192.624 72.2318 192.955 71.7462 193.372 71.3373C193.789 70.9283 194.284 70.6039 194.828 70.3827C195.373 70.1614 195.957 70.0476 196.546 70.0478H240.878C241.468 70.0476 242.052 70.1614 242.597 70.3827C243.141 70.6039 243.636 70.9283 244.053 71.3373C244.47 71.7462 244.801 72.2318 245.026 72.7661C245.252 73.3005 245.368 73.8732 245.368 74.4515Z" fill="#B3B3B3"/>
<path d="M351.824 82.0414C351.516 81.0669 350.994 80.1704 350.295 79.4151C349.596 78.6598 348.736 78.0641 347.777 77.6699C346.818 77.2757 345.782 77.0926 344.743 77.1335C343.704 77.1744 342.686 77.4384 341.762 77.9067L280.772 56.4415L278.085 71.3875L338.882 87.7874C339.787 89.2579 341.21 90.3516 342.882 90.8614C344.555 91.3712 346.359 91.2615 347.955 90.5533C349.55 89.845 350.825 88.5873 351.538 87.0185C352.251 85.4498 352.353 83.6789 351.824 82.0414V82.0414Z" fill="#FFB8B8"/>
<path opacity="0.2" d="M351.824 82.0414C351.516 81.0669 350.994 80.1704 350.295 79.4151C349.596 78.6598 348.736 78.0641 347.777 77.6699C346.818 77.2757 345.782 77.0926 344.743 77.1335C343.704 77.1744 342.686 77.4384 341.762 77.9067L280.772 56.4415L278.085 71.3875L338.882 87.7874C339.787 89.2579 341.21 90.3516 342.882 90.8614C344.555 91.3712 346.359 91.2615 347.955 90.5533C349.55 89.845 350.825 88.5873 351.538 87.0185C352.251 85.4498 352.353 83.6789 351.824 82.0414V82.0414Z" fill="black"/>
<path d="M291.597 59.165L285.838 73.9245C285.674 74.3445 285.42 74.7248 285.093 75.0397C284.765 75.3546 284.373 75.5966 283.942 75.7492C283.51 75.9018 283.051 75.9615 282.594 75.9242C282.137 75.8868 281.694 75.7534 281.294 75.5328L267.297 67.8048C265.112 66.97 263.353 65.3193 262.406 63.2145C261.46 61.1097 261.403 58.7226 262.247 56.5765C263.092 54.4305 264.77 52.7005 266.913 51.766C269.056 50.8315 271.489 50.7686 273.679 51.5912L289.31 54.9918C289.757 55.0893 290.178 55.2802 290.544 55.5516C290.909 55.823 291.211 56.1685 291.428 56.5646C291.645 56.9606 291.772 57.3979 291.802 57.8466C291.831 58.2954 291.761 58.745 291.597 59.165V59.165Z" fill="#DE0909"/>
<path d="M356.625 95.7078L334.771 105.452L337.64 116.048C343.181 136.51 344.651 157.826 341.971 178.834V178.834L357.949 182.107L371.194 148.977L366.558 111.299L356.625 95.7078Z" fill="#DE0909"/>
<path d="M399.505 144.754C385.146 144.754 373.445 154.993 372.877 167.816H426.133C425.565 154.993 413.864 144.754 399.505 144.754Z" fill="#3F3D56"/>
<path d="M388.328 146.964C387.58 89.0837 353.976 94.4086 353.976 94.4086C353.976 94.4086 354.605 112.425 354.907 112.985C376.32 152.728 340.979 199.322 295.993 190.75C295.145 190.589 294.33 190.425 293.549 190.258C287.849 189.091 282.816 185.837 279.474 181.16C276.133 176.482 274.733 170.731 275.56 165.077C279.991 130.17 257.951 130.787 257.951 130.787H225.721L208.984 116.011C208.394 115.49 207.682 115.118 206.91 114.929C206.139 114.739 205.333 114.738 204.561 114.926C203.79 115.113 203.077 115.483 202.484 116.003C201.892 116.523 201.439 117.177 201.164 117.909L199.011 123.641C199.011 123.641 167.223 126.89 169.872 157.422H179.7C179.676 158.289 179.711 159.157 179.806 160.02L253.15 159.435C257.449 159.401 261.244 162.818 261.262 167.036C261.266 168.062 261.059 169.079 260.654 170.026C260.248 170.972 259.652 171.829 258.901 172.544C258.151 173.26 257.26 173.819 256.284 174.189C255.308 174.559 254.265 174.733 253.219 174.698L241.395 174.312C237.752 190.227 246.692 200.946 256.543 207.686C265.818 213.94 276.824 217.255 288.078 217.187H320.202C361.923 217.187 369.208 182.757 369.208 182.757C391.062 173.662 388.328 146.964 388.328 146.964Z" fill="#3F3D56"/>
<path d="M397.518 236.026C418.092 236.026 434.769 219.666 434.769 199.484C434.769 179.303 418.092 162.943 397.518 162.943C376.945 162.943 360.267 179.303 360.267 199.484C360.267 219.666 376.945 236.026 397.518 236.026Z" fill="#3F3D56"/>
<path d="M397.518 208.441C402.561 208.441 406.648 204.431 406.648 199.484C406.648 194.538 402.561 190.528 397.518 190.528C392.476 190.528 388.388 194.538 388.388 199.484C388.388 204.431 392.476 208.441 397.518 208.441Z" fill="white"/>
<path d="M209.441 236.026C233.123 236.026 252.321 217.193 252.321 193.963C252.321 170.732 233.123 151.9 209.441 151.9C185.759 151.9 166.561 170.732 166.561 193.963C166.561 217.193 185.759 236.026 209.441 236.026Z" fill="#3F3D56"/>
<path d="M209.441 204.272C215.245 204.272 219.951 199.657 219.951 193.963C219.951 188.269 215.245 183.653 209.441 183.653C203.637 183.653 198.931 188.269 198.931 193.963C198.931 199.657 203.637 204.272 209.441 204.272Z" fill="white"/>
<path d="M334.833 108.331L326.97 87.3813C326.56 86.2895 326.373 85.1291 326.421 83.9665C326.468 82.804 326.748 81.6619 327.246 80.6056C327.743 79.5493 328.447 78.5995 329.319 77.8103C330.19 77.0211 331.212 76.408 332.325 76.006L354.868 67.8655C356.826 67.158 358.908 66.8359 360.993 66.9175C363.078 66.9991 365.127 67.4828 367.022 68.341C368.916 69.1993 370.62 70.4152 372.036 71.9193C373.452 73.4235 374.552 75.1865 375.273 77.1076C375.923 78.832 376.255 80.6561 376.254 82.4946C376.245 84.829 375.707 87.1323 374.677 89.237C373.647 91.3417 372.153 93.1949 370.302 94.662C368.964 95.7143 367.461 96.5457 365.851 97.1234L334.833 108.331Z" fill="#3F3D56"/>
<path d="M175.501 161.644C180.621 161.644 184.772 156.7 184.772 150.601C184.772 144.501 180.621 139.557 175.501 139.557C170.38 139.557 166.229 144.501 166.229 150.601C166.229 156.7 170.38 161.644 175.501 161.644Z" fill="#DE0909"/>
<path d="M298.057 189.692H306.176L310.038 169.036L298.055 169.037L298.057 189.692Z" fill="#FFB8B8"/>
<path d="M295.986 187.092L311.975 187.091H311.975C313.313 187.091 314.638 187.35 315.875 187.852C317.111 188.354 318.234 189.091 319.18 190.019C320.127 190.947 320.877 192.049 321.389 193.261C321.901 194.474 322.165 195.774 322.165 197.086V197.411L295.986 197.412L295.986 187.092Z" fill="#2F2E41"/>
<path d="M307.481 181.214C307.386 181.214 307.291 181.21 307.196 181.201L295.96 180.398C295.505 180.357 295.067 180.214 294.678 179.98C294.289 179.746 293.96 179.428 293.716 179.049C293.472 178.671 293.32 178.242 293.272 177.797C293.224 177.352 293.28 176.902 293.437 176.482L308.474 143.342C308.582 143.046 308.626 142.732 308.603 142.419C308.581 142.106 308.493 141.801 308.344 141.523C308.196 141.242 307.989 140.995 307.737 140.798C307.485 140.601 307.193 140.459 306.88 140.38C299.809 138.567 281.667 133.739 265.962 128.091C259.234 125.671 254.996 122.173 253.367 117.696C251.22 111.793 254.397 106.409 254.533 106.183L254.64 106.006L269.418 107.324L285.438 108.661L320.546 127.128C323.488 128.688 325.722 131.279 326.804 134.383C327.887 137.487 327.737 140.877 326.386 143.878L310.2 179.482C309.966 179.997 309.584 180.435 309.102 180.743C308.619 181.05 308.056 181.214 307.481 181.214Z" fill="#2F2E41"/>
<path d="M271.987 41.7583C280.97 41.7583 288.252 34.6149 288.252 25.803C288.252 16.9911 280.97 9.84769 271.987 9.84769C263.004 9.84769 255.722 16.9911 255.722 25.803C255.722 34.6149 263.004 41.7583 271.987 41.7583Z" fill="#FFB8B8"/>
<path d="M293.421 191.641H301.54L305.403 170.985L293.42 170.986L293.421 191.641Z" fill="#FFB8B8"/>
<path d="M291.35 189.041L307.339 189.04H307.34C308.678 189.04 310.003 189.299 311.239 189.801C312.475 190.303 313.599 191.039 314.545 191.968C315.491 192.896 316.242 193.998 316.754 195.21C317.266 196.423 317.529 197.723 317.529 199.035V199.36L291.35 199.361L291.35 189.041Z" fill="#2F2E41"/>
<path d="M302.845 183.163C302.75 183.163 302.655 183.159 302.56 183.15L291.324 182.347C290.87 182.306 290.431 182.163 290.042 181.929C289.653 181.695 289.324 181.376 289.08 180.998C288.836 180.619 288.684 180.191 288.636 179.746C288.588 179.301 288.644 178.851 288.801 178.431L303.839 145.29C303.946 144.995 303.99 144.681 303.968 144.368C303.945 144.055 303.857 143.75 303.709 143.472C303.561 143.191 303.354 142.944 303.101 142.747C302.849 142.55 302.557 142.407 302.244 142.329C295.173 140.516 277.031 135.688 261.327 130.04C254.598 127.619 250.361 124.122 248.732 119.644C246.584 113.741 249.761 108.358 249.898 108.132L250.004 107.955L264.782 109.273L280.802 110.609L315.91 129.077C318.852 130.637 321.086 133.227 322.169 136.331C323.251 139.436 323.102 142.826 321.75 145.826L305.564 181.431C305.33 181.946 304.949 182.384 304.466 182.692C303.984 182.999 303.42 183.163 302.845 183.163Z" fill="#2F2E41"/>
<path d="M277.003 50.8057L259.785 44.9591C259.785 44.9591 248.976 53.1053 254.169 73.3141C256.88 83.7425 256.09 94.7505 251.917 104.704C251.415 105.935 250.835 107.135 250.183 108.297C250.183 108.297 269.388 131.034 287.268 114.144L280.315 81.3378C280.315 81.3378 291.242 59.5755 277.003 50.8057Z" fill="#DE0909"/>
<path d="M274.006 42.3009C271.691 38.9019 269.864 34.1888 272.413 30.9547C274.929 27.7624 279.891 28.2327 283.745 26.8201C289.111 24.8527 292.224 18.6679 291.253 13.129C290.283 7.59011 285.75 2.99855 280.35 1.11983C274.95 -0.758885 268.861 -0.147881 263.573 2.01558C257.064 4.67882 251.48 9.83069 249.139 16.3567C246.797 22.8828 248.049 30.7186 252.906 35.7346C258.114 41.1124 266.287 42.5456 273.848 42.4586" fill="#2F2E41"/>
<path d="M258.876 13.3068C255.959 15.6362 251.509 14.6016 248.377 12.5572C245.246 10.5128 242.705 7.60172 239.317 5.99884C233.344 3.17303 226.123 5.05154 220.31 8.18163C214.496 11.3117 209.343 15.636 203.203 18.0923C197.063 20.5486 189.227 20.6701 184.578 16.032C183.433 19.2839 183.34 22.8029 184.31 26.1088C185.28 29.4148 187.266 32.3467 189.997 34.5045C192.728 36.6623 196.072 37.941 199.571 38.166C203.071 38.391 206.556 37.5515 209.551 35.7619C216.279 31.7418 219.995 23.3128 227.541 21.0939C231.717 19.8661 236.201 20.855 240.421 21.9261C244.642 22.9972 249.042 24.1546 253.301 23.2427C257.56 22.3309 261.544 18.5764 261.003 14.3333L258.876 13.3068Z" fill="#2F2E41"/>
<path d="M351.015 81.3915C350.587 80.4617 349.956 79.6352 349.167 78.9703C348.378 78.3054 347.45 77.8183 346.449 77.5432C345.447 77.2681 344.397 77.2117 343.37 77.3781C342.344 77.5445 341.368 77.9296 340.51 78.5062L277.286 64.5867L276.5 79.7436L338.894 88.66C339.977 90.0097 341.527 90.9228 343.251 91.2263C344.974 91.5298 346.752 91.2026 348.246 90.3067C349.74 89.4108 350.847 88.0084 351.357 86.3653C351.867 84.7221 351.746 82.9524 351.015 81.3915V81.3915Z" fill="#FFB8B8"/>
<path d="M288.371 65.9791L284.512 81.3229C284.402 81.7595 284.197 82.1677 283.912 82.5198C283.627 82.8719 283.268 83.1596 282.859 83.3632C282.451 83.5669 282.002 83.6817 281.544 83.6999C281.086 83.7182 280.629 83.6394 280.205 83.4689L265.343 77.494C263.068 76.9314 261.113 75.5065 259.907 73.5319C258.702 71.5572 258.344 69.1941 258.913 66.9612C259.482 64.7282 260.93 62.8077 262.941 61.6211C264.951 60.4345 267.359 60.0787 269.637 60.6318L285.576 62.1146C286.032 62.1572 286.474 62.2958 286.87 62.5209C287.267 62.746 287.61 63.0523 287.875 63.4191C288.14 63.7858 288.322 64.2043 288.407 64.6461C288.493 65.0879 288.48 65.5425 288.371 65.9791V65.9791Z" fill="#DE0909"/>
<path d="M343.711 93.4341C346.271 93.4341 348.347 91.3982 348.347 88.8868C348.347 86.3754 346.271 84.3394 343.711 84.3394C341.151 84.3394 339.075 86.3754 339.075 88.8868C339.075 91.3982 341.151 93.4341 343.711 93.4341Z" fill="#DE0909"/>
<path d="M549 236.35C548.999 236.522 548.93 236.687 548.805 236.809C548.681 236.931 548.513 236.999 548.338 237H0.662244C0.486606 237 0.318161 236.931 0.193966 236.81C0.0697714 236.688 0 236.523 0 236.35C0 236.178 0.0697714 236.013 0.193966 235.891C0.318161 235.769 0.486606 235.701 0.662244 235.701H548.338C548.513 235.701 548.681 235.77 548.805 235.892C548.93 236.013 548.999 236.178 549 236.35V236.35Z" fill="#3F3D56"/>
<path d="M375.922 82.4945C375.921 84.7814 375.396 87.0388 374.387 89.1006C373.379 91.1624 371.912 92.9762 370.094 94.4085C367.306 93.687 364.711 92.3785 362.491 90.5739C360.27 88.7693 358.476 86.512 357.235 83.9588C355.993 81.4056 355.333 78.6177 355.301 75.7891C355.269 72.9605 355.865 70.1589 357.048 67.5792C359.32 67.0947 361.673 67.1153 363.935 67.6396C366.198 68.1639 368.312 69.1786 370.122 70.6091C371.932 72.0396 373.393 73.8497 374.396 75.9064C375.4 77.9631 375.922 80.2142 375.922 82.4945V82.4945Z" fill="#DE0909"/>
</g>
<defs>
<filter id="filter0_f_34_2" x="347.285" y="51.1027" width="116.076" height="72.7796" filterUnits="userSpaceOnUse" color-interpolation-filters="sRGB">
<feFlood flood-opacity="0" result="BackgroundImageFix"/>
<feBlend mode="normal" in="SourceGraphic" in2="BackgroundImageFix" result="shape"/>
<feGaussianBlur stdDeviation="3.5" result="effect1_foregroundBlur_34_2"/>
</filter>
<clipPath id="clip0_34_2">
<rect width="549" height="237" fill="white"/>
</clipPath>
</defs>
</svg>
